<?xml version="1.0" encoding="UTF-8"?>
<svg version="1.1" xmlns="http://www.w3.org/2000/svg" width="515" height="180">
<path d="M0 0 C169.95 0 339.9 0 515 0 C515 59.4 515 118.8 515 180 C345.05 180 175.1 180 0 180 C0 120.6 0 61.2 0 0 Z " fill="#FCFCFC" transform="translate(0,0)"/>
<path d="M0 0 C7.59 0 15.18 0 23 0 C25.73153747 7.92963354 28.46202508 15.85962644 31.19083405 23.79019928 C32.45896878 27.47557787 33.72750363 31.16081755 34.99707031 34.84570312 C41.09082287 52.53370261 47.12985056 70.23619509 53 88 C46.73 88 40.46 88 34 88 C33.01 85.07125 32.02 82.1425 31 79.125 C30.68675781 78.20348145 30.37351562 77.28196289 30.05078125 76.33251953 C29.80714844 75.60661621 29.56351562 74.88071289 29.3125 74.1328125 C29.06113281 73.38918457 28.80976563 72.64555664 28.55078125 71.87939453 C28 70 28 70 28 68 C16.78 68 5.56 68 -6 68 C-6.99 71.96 -7.98 75.92 -9 80 C-9.99 82.64 -10.98 85.28 -12 88 C-17.94 88 -23.88 88 -30 88 C-27.92900353 80.96728259 -25.70317774 74.00974723 -23.33984375 67.0703125 C-22.99332764 66.04895203 -22.64681152 65.02759155 -22.28979492 63.97528076 C-21.1745362 60.69111044 -20.0562627 57.40797819 -18.9375 54.125 C-18.55860626 53.01127014 -18.17971252 51.89754028 -17.78933716 50.75006104 C-12.01316544 33.77658135 -6.13338577 16.84797368 0 0 Z " fill="#060606" transform="translate(227,21)"/>
<path d="M0 0 C46.44444444 0 46.44444444 0 55 7 C61.21005076 13.25483478 63.39855606 18.31636237 63.375 27.25 C63.32846709 35.065867 62.59392614 40.96080867 57.234375 46.984375 C48.83239865 54.98940759 40.63520952 55.4242559 29.5 55.1875 C25.375 55.125625 21.25 55.06375 17 55 C17 65.89 17 76.78 17 88 C11.39 88 5.78 88 0 88 C0 58.96 0 29.92 0 0 Z " fill="#040404" transform="translate(133,21)"/>
<path d="M0 0 C1.64453125 1.5 1.64453125 1.5 2.64453125 4.5 C0.9921875 7.19921875 0.9921875 7.19921875 -1.29296875 10.1875 C-2.04449219 11.18136719 -2.79601562 12.17523438 -3.5703125 13.19921875 C-4.15941406 13.95847656 -4.74851562 14.71773437 -5.35546875 15.5 C-7.37054413 14.49471631 -9.38342597 13.48577992 -11.390625 12.46484375 C-12.05964844 12.12582031 -12.72867188 11.78679688 -13.41796875 11.4375 C-14.08957031 11.09589844 -14.76117188 10.75429688 -15.453125 10.40234375 C-21.50335426 7.53252248 -29.09348927 7.37361971 -35.54296875 9.078125 C-37.46544497 9.96699834 -37.46544497 9.96699834 -39.35546875 12.5 C-40.00599026 15.60680102 -40.09040685 18.40642335 -39.35546875 21.5 C-35.10162009 27.02231558 -26.75354798 27.65788415 -20.35546875 28.9375 C-10.78982103 30.9350626 -1.65972115 33.97994902 3.96484375 42.5 C7.67660245 49.76777927 7.72708818 57.39826202 5.58203125 65.1875 C2.99438292 71.90335009 -1.39197196 76.8780951 -7.91796875 79.9375 C-19.07061385 84.50087589 -34.62188971 84.17527529 -45.73046875 79.83984375 C-51.67976147 76.80322559 -56.50766751 72.9660354 -60.35546875 67.5 C-58.924166 64.33831632 -57.18032737 61.87725517 -54.91796875 59.25 C-54.32113281 58.54359375 -53.72429687 57.8371875 -53.109375 57.109375 C-51.35546875 55.5 -51.35546875 55.5 -48.35546875 55.5 C-47.67484375 56.386875 -46.99421875 57.27375 -46.29296875 58.1875 C-41.89500466 63.64927841 -36.45713841 66.13416204 -29.546875 66.94921875 C-22.17123953 67.35185209 -22.17123953 67.35185209 -15.46875 64.65234375 C-12.68895209 61.82116325 -12.39993503 59.98912911 -12.04296875 56.0625 C-12.08307229 52.57078304 -12.08307229 52.57078304 -13.73046875 50.25 C-18.62630775 46.98610733 -24.32175056 45.98276232 -29.9921875 44.63671875 C-39.68395472 42.25542508 -49.8062344 39.51750583 -55.35546875 30.5 C-58.56956076 23.94183431 -58.14530982 16.59459012 -57.35546875 9.5 C-54.97754513 3.2801642 -50.31441978 -1.56653955 -44.35546875 -4.5 C-29.83592449 -10.34092416 -12.86272462 -8.89961487 0 0 Z " fill="#060606" transform="translate(345.35546875,27.5)"/>
<path d="M0 0 C19.14 0 38.28 0 58 0 C58 4.95 58 9.9 58 15 C44.47 15 30.94 15 17 15 C17 21.93 17 28.86 17 36 C28.88 36 40.76 36 53 36 C53 40.29 53 44.58 53 49 C41.12 49 29.24 49 17 49 C17 57.25 17 65.5 17 74 C30.86 74 44.72 74 59 74 C59 78.62 59 83.24 59 88 C39.53 88 20.06 88 0 88 C0 58.96 0 29.92 0 0 Z " fill="#FABD5D" transform="translate(58,21)"/>
<path d="M0 0 C20.79 0 41.58 0 63 0 C63 17.61472235 63 17.61472235 54.63916016 26.19873047 C51.33553595 29.82907592 48.52509159 33.85867025 45.625 37.8125 C40.59504748 44.59395951 35.48215651 51.281475 30.11962891 57.80395508 C26.10915938 62.72230361 22.67875362 67.74463768 19 73 C33.52 73 48.04 73 63 73 C63 77.95 63 82.9 63 88 C41.88 88 20.76 88 -1 88 C-1 69.63976513 -1 69.63976513 4.3125 63.875 C5.13065186 62.89055908 5.13065186 62.89055908 5.96533203 61.88623047 C7.08279072 60.54366288 8.21523033 59.21341324 9.36279297 57.89648438 C11.81260048 55.05871152 14.08316523 52.09042522 16.375 49.125 C17.2706621 47.98712001 18.16783647 46.85042898 19.06640625 45.71484375 C22.49113748 41.37969591 25.90712111 37.03786929 29.3125 32.6875 C29.88726074 31.95869629 30.46202148 31.22989258 31.05419922 30.47900391 C31.60994629 29.7679248 32.16569336 29.0568457 32.73828125 28.32421875 C33.22337158 27.70635498 33.70846191 27.08849121 34.20825195 26.4519043 C36.93238209 22.72408866 39.43890081 18.84164878 42 15 C28.14 15 14.28 15 0 15 C0 10.05 0 5.1 0 0 Z " fill="#080808" transform="translate(361,21)"/>
<path d="M0 0 C118.47 0 236.94 0 359 0 C359 1.98 359 3.96 359 6 C240.53 6 122.06 6 0 6 C0 4.02 0 2.04 0 0 Z " fill="#0A0A0A" transform="translate(17,131)"/>
<path d="M0 0 C130.02 0 260.04 0 394 0 C394 1.65 394 3.3 394 5 C263.98 5 133.96 5 0 5 C0 3.35 0 1.7 0 0 Z " fill="#000000" transform="translate(93,156)"/>
<path d="M0 0 C3.01125 -0.061875 6.0225 -0.12375 9.125 -0.1875 C10.06230957 -0.21481201 10.99961914 -0.24212402 11.96533203 -0.27026367 C18.32083281 -0.33320953 22.46203651 0.79597908 27.375 5.0625 C29.75882516 9.37172241 29.63317157 13.1817188 29 18 C27.34146853 22.80101214 25.5438902 24.7863099 21 27 C20.34 27.33 19.68 27.66 19 28 C17.55151418 28.08342159 16.09929131 28.10732861 14.6484375 28.09765625 C13.88192871 28.09515869 13.11541992 28.09266113 12.32568359 28.09008789 C11.35195801 28.08098389 10.37823242 28.07187988 9.375 28.0625 C6.28125 28.041875 3.1875 28.02125 0 28 C0 18.76 0 9.52 0 0 Z " fill="#F4F4F4" transform="translate(150,35)"/>
<path d="M0 0 C19.14 0 38.28 0 58 0 C58 4.95 58 9.9 58 15 C44.47 15 30.94 15 17 15 C17 14.67 17 14.34 17 14 C29.54 13.67 42.08 13.34 55 13 C55 10.03 55 7.06 55 4 C53.99253581 2.77099538 53.99253581 2.77099538 51.94358826 2.87974548 C50.58790489 2.8830764 50.58790489 2.8830764 49.20483398 2.88647461 C48.16951538 2.88659546 47.13419678 2.88671631 46.06750488 2.88684082 C44.97143921 2.89195679 43.87537354 2.89707275 42.74609375 2.90234375 C41.74453247 2.90335083 40.74297119 2.90435791 39.71105957 2.90539551 C35.95319481 2.91064571 32.19534631 2.92460683 28.4375 2.9375 C20.043125 2.958125 11.64875 2.97875 3 3 C2.67 30.06 2.34 57.12 2 85 C19.82 85.33 37.64 85.66 56 86 C55.67 82.7 55.34 79.4 55 76 C53.23571655 75.96241577 53.23571655 75.96241577 51.43579102 75.92407227 C47.08785378 75.83017194 42.74008284 75.72990952 38.39233398 75.62768555 C36.50760782 75.58427067 34.62284064 75.54260057 32.73803711 75.50268555 C30.03486751 75.44514107 27.33190564 75.38140196 24.62890625 75.31640625 C23.78099014 75.29969376 22.93307404 75.28298126 22.0594635 75.26576233 C16.11387171 75.11387171 16.11387171 75.11387171 15 74 C14.61679739 70.20054187 14.52987161 66.37735217 14.375 62.5625 C14.3234375 61.48677734 14.271875 60.41105469 14.21875 59.30273438 C14.17492187 58.27599609 14.13109375 57.24925781 14.0859375 56.19140625 C14.0451709 55.24467041 14.0044043 54.29793457 13.96240234 53.32250977 C14 51 14 51 15 49 C15.66 49 16.32 49 17 49 C17 57.25 17 65.5 17 74 C30.86 74 44.72 74 59 74 C59 78.62 59 83.24 59 88 C39.53 88 20.06 88 0 88 C0 58.96 0 29.92 0 0 Z " fill="#E1C287" transform="translate(58,21)"/>
<path d="M0 0 C13.53 0 27.06 0 41 0 C41 0.66 41 1.32 41 2 C37.12623245 3.27794393 33.27373682 3.06900688 29.25 3 C20.7950504 2.91890621 12.4280886 3.36477394 4 4 C3.67 8.29 3.34 12.58 3 17 C4.43835205 17.03758423 4.43835205 17.03758423 5.90576172 17.07592773 C9.45798477 17.1699862 13.01001156 17.27021058 16.56201172 17.37231445 C18.10037653 17.41566926 19.63878963 17.45734395 21.17724609 17.49731445 C23.3865414 17.55500398 25.59559348 17.61870179 27.8046875 17.68359375 C28.49432587 17.70030624 29.18396423 17.71701874 29.89450073 17.73423767 C34.77225659 17.88612829 34.77225659 17.88612829 37 19 C38.12178787 22.3653636 38.16771159 25.0203755 38.1875 28.5625 C38.20167969 29.71878906 38.21585938 30.87507813 38.23046875 32.06640625 C38 35 38 35 36 37 C33.56255103 37.17488254 31.2406392 37.23177405 28.8046875 37.1953125 C28.09724396 37.1924826 27.38980042 37.18965271 26.66091919 37.18673706 C24.3987749 37.17553137 22.13702485 37.15042679 19.875 37.125 C18.34245363 37.11497067 16.80990106 37.10584474 15.27734375 37.09765625 C11.51795465 37.0772912 7.75941922 37.03814518 4 37 C4 43.6 4 50.2 4 57 C16.54 57 29.08 57 42 57 C42 57.66 42 58.32 42 59 C28.14 59 14.28 59 0 59 C0 50.75 0 42.5 0 34 C11.88 34 23.76 34 36 34 C36 29.71 36 25.42 36 21 C24.12 21 12.24 21 0 21 C0 14.07 0 7.14 0 0 Z " fill="#FCECC6" transform="translate(75,36)"/>
<path d="M0 0 C0.99 0.33 1.98 0.66 3 1 C4.15087891 3.60449219 4.15087891 3.60449219 5.2265625 7.046875 C5.6184375 8.284375 6.0103125 9.521875 6.4140625 10.796875 C6.81774616 12.11457175 7.22139162 13.43228019 7.625 14.75 C8.03540351 16.05241619 8.44684993 17.35450424 8.859375 18.65625 C10.4615909 23.77060804 11.94779477 28.73897386 13 34 C5.41 34 -2.18 34 -10 34 C-9.30140688 28.41125502 -8.73700048 24.61126897 -6.93359375 19.53125 C-6.3293457 17.81035156 -6.3293457 17.81035156 -5.71289062 16.0546875 C-5.29201172 14.88164063 -4.87113281 13.70859375 -4.4375 12.5 C-4.01275391 11.29601562 -3.58800781 10.09203125 -3.15039062 8.8515625 C-2.10741555 5.89841959 -1.05712481 2.948101 0 0 Z " fill="#F5F5F5" transform="translate(237,40)"/>
<path d="M0 0 C1.61672607 -0.00472824 1.61672607 -0.00472824 3.26611328 -0.009552 C4.43899902 -0.00752777 5.61188477 -0.00550354 6.8203125 -0.00341797 C8.0151123 -0.00437469 9.20991211 -0.00533142 10.44091797 -0.00631714 C12.9729823 -0.00699918 15.50504838 -0.00514325 18.03710938 -0.00097656 C21.9284251 0.00437132 25.81962539 -0.00092079 29.7109375 -0.00732422 C32.16406276 -0.00666344 34.61718794 -0.00538229 37.0703125 -0.00341797 C38.24319824 -0.0054422 39.41608398 -0.00746643 40.62451172 -0.009552 C41.7023291 -0.00639984 42.78014648 -0.00324768 43.890625 0 C44.84469238 0.00079559 45.79875977 0.00159119 46.78173828 0.00241089 C48.9453125 0.12939453 48.9453125 0.12939453 49.9453125 1.12939453 C50.01711214 2.64867491 50.02923257 4.17106935 50.0078125 5.69189453 C49.99878906 6.51818359 49.98976562 7.34447266 49.98046875 8.19580078 C49.96886719 8.83388672 49.95726562 9.47197266 49.9453125 10.12939453 C49.6153125 10.12939453 49.2853125 10.12939453 48.9453125 10.12939453 C48.8009375 8.99501953 48.6565625 7.86064453 48.5078125 6.69189453 C48.33359772 3.32162252 48.33359772 3.32162252 46.9453125 2.12939453 C45.34920268 2.03605748 43.74897822 2.01194081 42.15014648 2.01586914 C41.11482788 2.01598999 40.07950928 2.01611084 39.01281738 2.01623535 C37.91675171 2.02135132 36.82068604 2.02646729 35.69140625 2.03173828 C34.68984497 2.03274536 33.68828369 2.03375244 32.65637207 2.03479004 C28.89850731 2.04004024 25.14065881 2.05400136 21.3828125 2.06689453 C12.9884375 2.08751953 4.5940625 2.10814453 -4.0546875 2.12939453 C-4.3846875 29.18939453 -4.7146875 56.24939453 -5.0546875 84.12939453 C12.7653125 84.45939453 30.5853125 84.78939453 48.9453125 85.12939453 C48.6153125 81.49939453 48.2853125 77.86939453 47.9453125 74.12939453 C48.6053125 74.12939453 49.2653125 74.12939453 49.9453125 74.12939453 C51.27231967 78.11041605 50.97905318 81.97929064 50.9453125 86.12939453 C43.14909556 86.15468272 35.35288914 86.17223522 27.55664062 86.18432617 C24.90266525 86.18936495 22.24869266 86.19619605 19.59472656 86.20483398 C15.78710239 86.21691942 11.97951481 86.22262728 8.171875 86.22705078 C6.97913971 86.23221207 5.78640442 86.23737335 4.55752563 86.24269104 C3.45653534 86.24276657 2.35554504 86.2428421 1.22119141 86.24291992 C-0.2377504 86.24625084 -0.2377504 86.24625084 -1.72616577 86.24964905 C-4.0546875 86.12939453 -4.0546875 86.12939453 -6.0546875 85.12939453 C-6.07781047 74.19442982 -6.09560235 63.25947087 -6.10649967 52.32448673 C-6.1117286 47.24748435 -6.11882642 42.17049864 -6.13012695 37.09350586 C-6.14095549 32.19818901 -6.14696426 27.30288824 -6.14956474 22.40756035 C-6.15141905 20.53556502 -6.15503978 18.66357063 -6.16041756 16.79158211 C-6.16762754 14.17898754 -6.16867846 11.56646026 -6.16821289 8.95385742 C-6.17180817 8.17199066 -6.17540344 7.3901239 -6.17910767 6.58456421 C-6.16724994 0.47601008 -6.05007179 0.00504513 0 0 Z " fill="#EBC075" transform="translate(65.0546875,21.87060546875)"/>
<path d="M0 0 C19.47 0 38.94 0 59 0 C59 0.66 59 1.32 59 2 C51.71501929 2.76084553 44.51077107 3.16922692 37.1875 3.203125 C35.72328613 3.21167511 35.72328613 3.21167511 34.22949219 3.22039795 C32.18930113 3.22976 30.14909555 3.23634641 28.10888672 3.24023438 C24.97988491 3.25006319 21.85150795 3.28121637 18.72265625 3.3125 C16.7317747 3.31902001 14.74088851 3.32427439 12.75 3.328125 C11.34850708 3.3466452 11.34850708 3.3466452 9.91870117 3.36553955 C8.62089722 3.3610379 8.62089722 3.3610379 7.296875 3.35644531 C6.53729492 3.36009094 5.77771484 3.36373657 4.99511719 3.36749268 C3 3 3 3 0 0 Z " fill="#FEFBDF" transform="translate(58,109)"/>
<path d="M0 0 C11.55 0 23.1 0 35 0 C35 0.33 35 0.66 35 1 C24.44 1 13.88 1 3 1 C3 7.6 3 14.2 3 21 C15.54 21 28.08 21 41 21 C41 21.33 41 21.66 41 22 C27.47 22 13.94 22 0 22 C0 14.74 0 7.48 0 0 Z " fill="#FEFAE3" transform="translate(76,72)"/>
<path d="M0 0 C18.81 0.495 18.81 0.495 38 1 C38.495 1.99 38.495 1.99 39 3 C26.13 3 13.26 3 0 3 C0 10.26 0 17.52 0 25 C-0.66 25 -1.32 25 -2 25 C-2.05816623 21.58340509 -2.09365195 18.16693795 -2.125 14.75 C-2.14175781 13.78191406 -2.15851563 12.81382813 -2.17578125 11.81640625 C-2.18222656 10.88183594 -2.18867187 9.94726562 -2.1953125 8.984375 C-2.20578613 8.12553711 -2.21625977 7.26669922 -2.22705078 6.38183594 C-2 4 -2 4 0 0 Z " fill="#EEC071" transform="translate(75,32)"/>
<path d="M0 0 C0 0.99 0 1.98 0 3 C-19.14 3 -38.28 3 -58 3 C-58 2.34 -58 1.68 -58 1 C-50.38282217 0.85706445 -42.76563369 0.71470723 -35.1484375 0.57275391 C-32.55663813 0.5243849 -29.96484123 0.47588304 -27.37304688 0.42724609 C-23.649746 0.35739857 -19.92643652 0.28802734 -16.203125 0.21875 C-15.04258606 0.19687622 -13.88204712 0.17500244 -12.68634033 0.15246582 C-11.60552185 0.13244507 -10.52470337 0.11242432 -9.41113281 0.09179688 C-8.46071106 0.07403198 -7.51028931 0.05626709 -6.53106689 0.03796387 C-4.35425267 0.00531349 -2.17705908 0 0 0 Z " fill="#FEFADF" transform="translate(116,18)"/>
<path d="M0 0 C19.14 0 38.28 0 58 0 C58 4.95 58 9.9 58 15 C44.47 15 30.94 15 17 15 C17 14.67 17 14.34 17 14 C29.54 13.67 42.08 13.34 55 13 C56.67082039 10.03103721 56.67082039 10.03103721 56 2 C37.52 1.67 19.04 1.34 0 1 C0 0.67 0 0.34 0 0 Z " fill="#ECD29C" transform="translate(58,21)"/>
<path d="M0 0 C0.66 0 1.32 0 2 0 C2 8.25 2 16.5 2 25 C14.54 25 27.08 25 40 25 C40 25.33 40 25.66 40 26 C34.46411467 26.02464775 28.928261 26.04283496 23.39233398 26.05493164 C21.5075627 26.05997244 19.62279535 26.06680498 17.73803711 26.07543945 C15.03498364 26.08751617 12.33198169 26.09323068 9.62890625 26.09765625 C8.35703209 26.10539818 8.35703209 26.10539818 7.0594635 26.11329651 C5.03928932 26.11349195 3.01922066 26.06206211 1 26 C-1.50108972 23.49891028 -0.48784058 16.9410592 -0.625 13.5625 C-0.6765625 12.48677734 -0.728125 11.41105469 -0.78125 10.30273438 C-0.82507813 9.27599609 -0.86890625 8.24925781 -0.9140625 7.19140625 C-0.9548291 6.24467041 -0.9955957 5.29793457 -1.03759766 4.32250977 C-1 2 -1 2 0 0 Z " fill="#ECC07A" transform="translate(73,70)"/>
<path d="M0 0 C12.87 0 25.74 0 39 0 C34.71706864 2.14146568 31.86099277 2.19568449 27.25 2.0625 C18.78846189 1.92969766 10.43480817 2.36426749 2 3 C1.67 5.64 1.34 8.28 1 11 C0.67 11 0.34 11 0 11 C0 7.37 0 3.74 0 0 Z " fill="#FEFDEA" transform="translate(77,37)"/>
<path d="M0 0 C0.99 0.33 1.98 0.66 3 1 C3.02694851 2.95825873 3.04637218 4.91662226 3.0625 6.875 C3.07410156 7.96554688 3.08570312 9.05609375 3.09765625 10.1796875 C3 13 3 13 2 15 C1.34 15 0.68 15 0 15 C0 10.05 0 5.1 0 0 Z " fill="#FEF9DF" transform="translate(116,21)"/>
<path d="M0 0 C0.99 0 1.98 0 3 0 C3 4.62 3 9.24 3 14 C2.01 14 1.02 14 0 14 C0 9.38 0 4.76 0 0 Z " fill="#FEFAE1" transform="translate(117,95)"/>
<path d="M0 0 C0.33 0.66 0.66 1.32 1 2 C1.66 2.33 2.32 2.66 3 3 C0.11964908 5.24027294 -2.84866512 7.16172132 -6 9 C-4.47291037 5.56404834 -2.40072955 2.88087546 0 0 Z M-7 9 C-6.34 9.66 -5.68 10.32 -5 11 C-5.99 11.33 -6.98 11.66 -8 12 C-7.67 11.01 -7.34 10.02 -7 9 Z " fill="#ECECEC" transform="translate(388,82)"/>
<path d="M0 0 C2.31 1.65 4.62 3.3 7 5 C6.67 5.66 6.34 6.32 6 7 C5.34 7 4.68 7 4 7 C3.67 7.66 3.34 8.32 3 9 C2.731875 8.05125 2.46375 7.1025 2.1875 6.125 C1.25013412 2.74732727 1.25013412 2.74732727 -2 1 C-1.34 0.67 -0.68 0.34 0 0 Z " fill="#EEEEEE" transform="translate(287,98)"/>
<path d="M0 0 C0.66 0.99 1.32 1.98 2 3 C-0.97 5.475 -0.97 5.475 -4 8 C-4 4.09161134 -2.49432124 2.88405893 0 0 Z " fill="#151515" transform="translate(366,85)"/>
<path d="M0 0 C0.66 0.33 1.32 0.66 2 1 C1.67 2.65 1.34 4.3 1 6 C-0.32 5.34 -1.64 4.68 -3 4 C-2.34 3.67 -1.68 3.34 -1 3 C-0.67 2.01 -0.34 1.02 0 0 Z " fill="#E5E5E5" transform="translate(309,47)"/>
</svg>
